<svg xmlns="http://www.w3.org/2000/svg" aria-hidden="true" style="position:absolute;width:0;height:0;overflow:hidden">
  <defs>
    <symbol id="icon-fiverr" viewBox="0 0 32 32">
      <path d="M30.672 20.784h.001a1.327 1.327 0 0 0 .002-2.654h-.001a1.327 1.327 0 0 0-.002 2.654zm-1.328-4.94h-1.133c-.728 0-1.12.547-1.12 1.456v3.288h-2.147v-4.744h-.912c-.729 0-1.12.547-1.12 1.456v3.288h-2.147v-6.499h2.147v.987c.352-.765.835-.987 1.551-.987h2.629v.987c.352-.765.833-.987 1.549-.987h.703v1.755zm-9.048 2.001h-4.479c.117.728.573 1.144 1.341 1.144.573 0 .976-.233 1.107-.649l1.9.533c-.468 1.131-1.627 1.819-3.007 1.819-2.331 0-3.399-1.807-3.399-3.353 0-1.52.937-3.34 3.267-3.34 2.475 0 3.295 1.845 3.295 3.211 0 .299-.013.493-.027.636zm-2.083-1.26c-.053-.56-.456-1.08-1.185-1.08-.677 0-1.08.3-1.211 1.08h2.396zm-8.202 4.002h1.888l2.356-6.499h-2.16l-1.147 3.783-1.171-3.783H7.626l2.383 6.499zm-8.8 0h2.136v-4.744h2.032v4.744H7.5v-6.499H3.347v-.403c0-.443.313-.715.808-.715h1.224v-1.755H3.8c-1.549 0-2.591.949-2.591 2.34v.533H0v1.755h1.211v4.744z"/>
    </symbol>
    <symbol id="icon-letter-n-svgrepo-com" viewBox="0 0 32 32">
      <path fill="#D5F60C" d="M32 28.444A3.556 3.556 0 0 1 28.444 32H3.555a3.556 3.556 0 0 1-3.556-3.556V3.555A3.556 3.556 0 0 1 3.555-.001h24.889A3.556 3.556 0 0 1 32 3.555v24.889z" style="fill:var(--color1, #D5F60C)"/>
      <path fill="#4e4e4e" d="M7.636 8.139c0-1.378.882-2.149 2.068-2.149.524 0 1.378.413 1.737.909l8.737 11.659h.055V8.139c0-1.378.882-2.149 2.066-2.149 1.186 0 2.068.772 2.068 2.149v15.654c0 1.379-.882 2.149-2.068 2.149-.523 0-1.349-.413-1.736-.908l-8.737-11.521h-.055v10.28c0 1.379-.882 2.149-2.068 2.149s-2.068-.771-2.068-2.149V8.139z" style="fill:var(--color2, #4e4e4e"/>
    </symbol>
    <symbol id="icon-letter-u-svgrepo-com" viewBox="0 0 32 32">
      <path fill="#D5F60C" d="M32 28.444A3.556 3.556 0 0 1 28.444 32H3.555a3.556 3.556 0 0 1-3.556-3.556V3.555A3.556 3.556 0 0 1 3.555-.001h24.889A3.556 3.556 0 0 1 32 3.555v24.889z" style="fill:var(--color1, #D5F60C)"/>
      <path fill="#4e4e4e" d="M7.111 8.139c0-1.378 1.037-2.149 2.222-2.149s2.222.772 2.222 2.149v9.619c0 2.536 1.827 4.376 4.444 4.376 2.508 0 4.444-1.95 4.444-4.376V8.139c0-1.378 1.038-2.149 2.222-2.149 1.186 0 2.193.772 2.193 2.149v9.839c0 4.63-4.313 8.131-8.86 8.131-4.603 0-8.889-3.445-8.889-8.131V8.139z" style="fill:var(--color2, #4e4e4e)"/>
    </symbol>
    <symbol id="icon-letter-h-svgrepo-com" viewBox="0 0 32 32">
      <path fill="#D5F60C" d="M32 28.444A3.556 3.556 0 0 1 28.444 32H3.555a3.556 3.556 0 0 1-3.556-3.556V3.555A3.556 3.556 0 0 1 3.555-.001h24.889A3.556 3.556 0 0 1 32 3.555v24.889z" style="fill:var(--color1, #D5F60C)"/>
      <path fill="#4e4e4e" d="M22.667 6.222a2.222 2.222 0 0 0-2.222 2.222v4.889h-8.889V8.444a2.222 2.222 0 0 0-4.444 0v15.111a2.222 2.222 0 0 0 4.444 0v-5.778h8.889v5.778a2.222 2.222 0 0 0 4.444 0V8.444a2.222 2.222 0 0 0-2.222-2.222z" style="fill:var(--color2, #4e4e4e)"/>
    </symbol>
    <symbol id="icon-letter-j-svgrepo-com" viewBox="0 0 32 32">
      <path fill="#D5F60C" d="M32 28.444A3.556 3.556 0 0 1 28.444 32H3.555a3.556 3.556 0 0 1-3.556-3.556V3.555A3.556 3.556 0 0 1 3.555-.001h24.889A3.556 3.556 0 0 1 32 3.555v24.889z" style="fill:var(--color1, #D5F60C)"/>
      <path fill="#4e4e4e" d="M13.933 8.139c0-1.378.882-2.149 2.068-2.149s2.067.772 2.067 2.149v15.654c0 1.379-.882 2.149-2.067 2.149s-2.068-.771-2.068-2.149V8.139z" style="fill:var(--color2, #4e4e4e)"/>
    </symbol>
    <symbol id="icon-letter-s-svgrepo-com" viewBox="0 0 32 32">
      <path fill="#D5F60C" d="M32 28.444A3.556 3.556 0 0 1 28.444 32H3.555a3.556 3.556 0 0 1-3.556-3.556V3.555A3.556 3.556 0 0 1 3.555-.001h24.889A3.556 3.556 0 0 1 32 3.555v24.889z" style="fill:var(--color1, #D5F60C)"/>
      <path fill="#4e4e4e" d="M21.444 8.58c0 1.075-.716 2.039-1.845 2.039s-2.012-.827-3.667-.827c-1.185 0-2.26.634-2.26 1.792 0 2.838 9.206 1.02 9.206 8.13 0 3.941-3.252 6.394-7.056 6.394-2.123 0-6.697-.496-6.697-3.087 0-1.075.716-1.956 1.846-1.956 1.295 0 2.838 1.075 4.63 1.075 1.819 0 2.812-1.02 2.812-2.371 0-3.252-9.205-1.295-9.205-7.689 0-3.859 3.169-6.256 6.835-6.256 1.543.001 5.401.58 5.401 2.756z" style="fill:var(--color2, #4e4e4e)"/>
    </symbol>
    <symbol id="icon-letter-t-svgrepo-com" viewBox="0 0 32 32">
      <path fill="#D5F60C" d="M32 28.444A3.556 3.556 0 0 1 28.444 32H3.555a3.556 3.556 0 0 1-3.556-3.556V3.555A3.556 3.556 0 0 1 3.555-.001h24.889A3.556 3.556 0 0 1 32 3.555v24.889z" style="fill:var(--color1, #D5F60C)"/>
      <path fill="#4e4e4e" d="M13.934 9.958H10.93c-1.323 0-1.874-.964-1.874-1.901 0-.964.689-1.902 1.874-1.902h10.143c1.184 0 1.874.937 1.874 1.902 0 .937-.55 1.901-1.874 1.901h-3.005v13.836c0 1.379-.882 2.149-2.067 2.149s-2.067-.771-2.067-2.149V9.958z" style="fill:var(--color2, #4e4e4e)"/>
    </symbol>
    <symbol id="icon-letter-v-svgrepo-com" viewBox="0 0 32 32">
      <path fill="#D5F60C" d="M32 28.444A3.556 3.556 0 0 1 28.444 32H3.555a3.556 3.556 0 0 1-3.556-3.556V3.555A3.556 3.556 0 0 1 3.555-.001h24.889A3.556 3.556 0 0 1 32 3.555v24.889z" style="fill:var(--color1, #D5F60C)"/>
      <path fill="#4e4e4e" d="M7.926 8.993a2.54 2.54 0 0 1-.193-.98v-.042.002c0-1.157 1.02-1.984 2.122-1.984.938 0 1.516.606 1.874 1.35l4.272 11.465 4.273-11.465c.357-.744.936-1.35 1.873-1.35 1.102 0 2.122.827 2.122 1.984 0 .386-.053.661-.193 1.02l-6.035 15.352c-.359.882-.828 1.598-2.04 1.598s-1.681-.716-2.04-1.598L7.926 8.993z" style="fill:var(--color2, #4e4e4e)"/>
    </symbol>
        <symbol id="icon-mingcute_laptop-fill" viewBox="0 0 32 32">
      <path fill="#4e4e4e" d="M28 25.333a1.336 1.336 0 0 1 1.021 2.19 1.334 1.334 0 0 1-.865.468L28 28H4a1.336 1.336 0 0 1-1.021-2.19c.219-.261.528-.428.865-.468L4 25.333h24zm-2.667-20a2.668 2.668 0 0 1 2.66 2.466l.007.2v13.333a2.668 2.668 0 0 1-2.466 2.66l-.2.007H6.667a2.668 2.668 0 0 1-2.66-2.466l-.007-.2V8a2.668 2.668 0 0 1 2.466-2.66l.2-.007h18.667z" style="fill:var(--color1, #4e4e4e)"/>
    </symbol>
        <symbol id="icon-mingcute_laptop" viewBox="0 0 32 32">
      <path d="M28 25.333a1.336 1.336 0 0 1 1.021 2.19 1.334 1.334 0 0 1-.865.468L28 28H4a1.336 1.336 0 0 1-1.021-2.19c.219-.261.528-.428.865-.468L4 25.333h24zm-2.667-20a2.668 2.668 0 0 1 2.66 2.466l.007.2v13.333a2.668 2.668 0 0 1-2.466 2.66l-.2.007H6.667a2.668 2.668 0 0 1-2.66-2.466l-.007-.2V8a2.668 2.668 0 0 1 2.466-2.66l.2-.007h18.667z"/>
    </symbol>
       <symbol id="arrow-1" viewBox="0 0 59 32">
      <path fill="#8ea5fa" d="M58.897 31.681a.297.297 0 0 0 .301-.292l.04-2.666a.297.297 0 0 0-.593-.009l-.035 2.37-2.37-.035a.297.297 0 0 0-.009.593l2.666.04zM32.989 4.692zM.233.64l11.616 9.769.381-.454L.614.186.233.64zm20.349 9.052 3.877-4.532-.45-.385-3.877 4.532.45.385zm12.194-4.793 25.912 26.692.425-.413L33.201 4.486l-.425.413zm-8.317.261a5.63 5.63 0 0 1 8.317-.262l.425-.413a6.222 6.222 0 0 0-9.193.289l.45.385zm-12.61 5.249a6.222 6.222 0 0 0 8.733-.717l-.45-.385a5.63 5.63 0 0 1-7.901.649l-.381.454z" style="fill:var(--color1, #8ea5fa)"/>
    </symbol>
    <symbol id="arrow-2" viewBox="0 0 94 32">
      <path fill="#8ea5fa" d="M49 15.104zm12.8 15.8zM92.794 2.257a.2.2 0 0 0-.242-.147l-1.748.429a.2.2 0 0 0 .096.389l1.554-.381.381 1.554a.2.2 0 0 0 .389-.095l-.428-1.748zM.304 15.28c5.284 2.876 14.059 6.326 23.224 7.333 9.163 1.007 18.753-.427 25.614-7.368l-.285-.281c-6.739 6.818-16.182 8.252-25.286 7.252-9.102-1-17.827-4.43-23.076-7.287l-.191.351zm48.838-.035c4.26-4.31 5.707-7.737 5.343-10.255-.368-2.541-2.558-4.054-5.298-4.578-2.745-.525-6.102-.075-8.94 1.356-2.841 1.433-5.179 3.86-5.844 7.299l.393.076c.635-3.289 2.872-5.626 5.631-7.018C43.189.732 46.457.298 49.112.805c2.66.508 4.645 1.943 4.977 4.242.336 2.322-.992 5.627-5.232 9.917l.285.281zM34.404 9.066c-1.317 6.814 1.675 13.135 6.921 17.34s12.757 6.306 20.516 4.694l-.082-.392c-7.641 1.588-15.03-.483-20.184-4.614s-8.062-10.31-6.779-16.952l-.393-.076zM61.841 31.1c6.223-1.293 12.676-6.366 18.199-12.143 5.53-5.784 10.158-12.306 12.732-16.55L92.43 2.2c-2.56 4.223-7.172 10.721-12.678 16.48-5.514 5.767-11.894 10.761-17.991 12.027l.082.392z" style="fill:var(--color1, #8ea5fa)"/>
    </symbol>
       <symbol id="icon-Fiverr-Logo-2020-present" viewBox="0 0 61 32">
      <path d="M17.401 10.455c-1.373.106-2.374.888-2.67 2.083-.07.285-.077.353-.081.892l-.005.486h-1.452v2.149h1.454v5.75l2.515-.005.003-2.873.002-2.872h2.43v5.75h2.52v-7.899h-4.95v-.288c0-.206.004-.308.014-.361.067-.346.334-.594.712-.66.069-.012.226-.015.893-.015h.811v-2.149l-1.043.001c-.575.001-1.093.006-1.153.01zM33.109 13.797c-1.348.078-2.392.699-3.029 1.803-.297.513-.479 1.101-.554 1.784-.02.182-.017.719.005.9.041.337.105.625.205.925.308.92.892 1.665 1.673 2.131.612.366 1.347.555 2.152.555 1.466 0 2.693-.627 3.352-1.711.095-.155.244-.462.231-.474-.005-.006-2.173-.625-2.228-.637-.024-.005-.029.001-.077.098-.143.287-.374.476-.716.585a2.122 2.122 0 0 1-.985.039c-.614-.123-1.007-.546-1.135-1.218a1.104 1.104 0 0 1-.015-.098c0-.016.132-.017 2.643-.017 1.716 0 2.646-.003 2.651-.01.016-.025.034-.249.04-.487.019-.76-.092-1.393-.349-1.998a3.56 3.56 0 0 0-1.135-1.456c-.702-.52-1.676-.775-2.729-.715zm.508 1.89c.333.039.599.158.818.37.228.22.365.507.406.851l.007.053h-2.861l.007-.043c.014-.087.075-.306.108-.395.181-.466.456-.71.909-.805.18-.039.428-.051.605-.031zM22.247 13.919c0 .005 2.797 7.835 2.81 7.868l.011.028h1.105c.87 0 1.106-.003 1.112-.012.019-.029 2.818-7.834 2.812-7.841-.003-.004-.58-.006-1.28-.005l-1.274.003-.682 2.29c-.375 1.259-.683 2.289-.685 2.287s-.31-1.041-.683-2.31l-.681-2.307-1.282-.003a127.92 127.92 0 0 0-1.281.001zM37.877 17.863l.003 3.948h2.56l.005-2.164.006-2.164.022-.137c.071-.433.198-.718.42-.943.159-.162.319-.249.568-.31.081-.019.117-.021.73-.024l.645-.004v5.751h2.559l.004-2.147c.003-2.357 0-2.217.063-2.499.143-.635.497-1.01 1.032-1.088.088-.013.224-.016.829-.016h.723v-.053l.02-.992.02-1.023v-.084l-.57.005c-.461.004-.593.008-.685.021-.414.06-.692.19-.947.443a2.13 2.13 0 0 0-.419.596l-.068.133v-1.197l-1.7.004c-1.846.003-1.764.001-2.019.058-.417.093-.744.324-.999.71a3.152 3.152 0 0 0-.201.355l-.03.063v-.595l-.001-.594h-2.57l.002 3.947z"/>
    </symbol>
    <symbol id="github-icon" viewBox="0 0 129 32">
      <path d="M79.21 24.708h-.043c.021 0 .021.021.043.021h.021l-.021-.021zm0 .022c-.171 0-.62.085-1.091.085-1.475 0-1.989-.684-1.989-1.582v-5.944h3.015c.171 0 .299-.15.299-.364v-3.229c0-.171-.15-.321-.299-.321H76.13v-4.02c0-.15-.107-.235-.278-.235h-4.106c-.171 0-.257.107-.257.235v4.127s-2.074.513-2.202.535a.32.32 0 0 0-.235.321v2.587c0 .214.15.364.321.364h2.096v6.244c0 4.64 3.229 5.111 5.431 5.111 1.005 0 2.224-.321 2.416-.428.107-.043.171-.171.171-.299v-2.844c0-.171-.107-.299-.278-.342zm45.033-4.17c0-3.443-1.39-3.892-2.844-3.742-1.133.064-2.052.642-2.052.642v6.693s.92.642 2.309.684c1.946.043 2.588-.663 2.588-4.277zm4.618-.299c0 6.522-2.117 8.382-5.795 8.382-3.122 0-4.79-1.582-4.79-1.582s-.064.877-.171.984c-.065.107-.15.15-.278.15h-2.801c-.193 0-.364-.15-.364-.321l.043-21.105c0-.171.149-.321.321-.321h4.042a.33.33 0 0 1 .321.321v7.163s1.561-1.005 3.849-1.005l-.021-.043c2.266 0 5.645.855 5.645 7.377zm-16.571-6.864h-3.999c-.214 0-.321.15-.321.364v10.328s-1.048.727-2.48.727c-1.411 0-1.839-.641-1.839-2.074v-9.024a.33.33 0 0 0-.321-.321h-4.063a.33.33 0 0 0-.321.321v9.729c0 4.17 2.33 5.217 5.538 5.217 2.651 0 4.79-1.454 4.79-1.454s.107.748.15.855a.361.361 0 0 0 .299.171h2.545c.213 0 .321-.15.321-.321l.043-14.198c.021-.171-.15-.321-.342-.321zm-45.033-.022h-4.042c-.171 0-.321.171-.321.385v13.942c0 .385.257.513.577.513h3.656c.385 0 .47-.171.47-.513V13.696c-.021-.171-.171-.321-.342-.321zm-2.01-6.436a2.615 2.615 0 0 0-2.63 2.63 2.615 2.615 0 0 0 2.63 2.63c1.433 0 2.588-1.155 2.588-2.63 0-1.454-1.155-2.63-2.588-2.63zm31.348-.47h-4.02a.33.33 0 0 0-.321.321v7.762h-6.287V6.79a.33.33 0 0 0-.321-.321h-4.042a.33.33 0 0 0-.321.321v21.105c0 .171.171.321.321.321h4.042a.33.33 0 0 0 .321-.321v-9.024h6.287l-.043 9.024c0 .171.149.321.321.321h4.042a.33.33 0 0 0 .321-.321V6.79c.021-.171-.128-.321-.299-.321zm-35.86 9.344v10.905c0 .064-.021.214-.107.235 0 0-2.374 1.689-6.286 1.689-4.726 0-10.349-1.475-10.349-11.247S48.89 5.613 53.679 5.634c4.148 0 5.816.941 6.073 1.112.064.107.107.171.107.257l-.77 3.4c0 .171-.171.385-.385.321-.684-.214-1.711-.62-4.127-.62-2.801 0-5.795.791-5.795 7.099 0 6.287 2.844 7.035 4.897 7.035 1.753 0 2.373-.214 2.373-.214v-4.362h-2.801c-.214 0-.364-.15-.364-.321v-3.507c0-.171.15-.321.364-.321h7.12c.214-.021.364.128.364.299zM16.836.225C7.834.225.542 7.517.542 16.519c0 7.206 4.661 13.3 11.14 15.46.813.128 1.133-.342 1.133-.77 0-.385-.021-1.668-.021-3.036-4.084.748-5.153-1.005-5.474-1.903-.192-.47-.984-1.924-1.668-2.309-.577-.299-1.39-1.069-.021-1.091 1.283-.021 2.202 1.176 2.502 1.668 1.475 2.459 3.806 1.775 4.747 1.347.15-1.048.577-1.775 1.048-2.181-3.614-.406-7.42-1.818-7.42-8.04 0-1.775.642-3.25 1.668-4.383-.171-.406-.727-2.074.171-4.319 0 0 1.369-.428 4.49 1.668a15.132 15.132 0 0 1 8.126 0c3.122-2.117 4.469-1.668 4.469-1.668.898 2.245.321 3.913.171 4.319 1.048 1.133 1.668 2.587 1.668 4.383 0 6.244-3.806 7.634-7.441 8.04.599.513 1.112 1.475 1.112 3.015 0 2.181-.021 3.934-.021 4.469 0 .428.299.941 1.112.77a16.336 16.336 0 0 0 11.098-15.46c0-8.981-7.292-16.272-16.294-16.272z"/>
    </symbol>
    <symbol id="toptal-icon" viewBox="0 0 105 32">
      <path d="m8.452 0 7 6.913c.048.047.095.094.167.141l6.095 6.02-9.929 9.735 4.548 4.491-3.048 2.986-6.952-6.843-.238-.235L0 17.188l9.881-9.711-4.5-4.444L8.452 0zm4.429 10.816a.484.484 0 0 0-.262 0c-.095.024-.167.07-.333.212l-5.643 5.549c-.167.165-.214.235-.238.329s-.024.188 0 .259c.024.094.071.165.238.329l1.786 1.764c.167.165.238.212.333.235s.191.023.262 0c.095-.024.167-.071.333-.212L15 13.732c.167-.165.214-.235.238-.329s.024-.188 0-.259c-.024-.094-.071-.165-.214-.329l-1.786-1.764c-.191-.165-.262-.212-.357-.235zM68.182 9.735c2.15 0 3.981.822 5.45 2.422 1.469 1.538 2.235 3.665 2.214 6.298 0 2.591-.766 4.824-2.278 6.425-1.49 1.58-3.406 2.38-5.685 2.38-1.958 0-3.747-.695-4.918-1.896l-.17-.169-.022 6.804h-3.875v-.295l.043-21.76h3.854v2.654c1.277-1.432 3.321-2.865 5.386-2.865zm24.889.063c2.214 0 3.747.484 4.918 1.453 1.129.927 1.725 2.57 1.789 4.318v.253l-.021 11.227h-3.939v-1.937c-1.129 1.559-2.725 2.317-4.833 2.317-1.682 0-3.109-.506-4.151-1.432-1.043-.948-1.618-2.254-1.597-3.77.021-2.844 2.044-4.824 5.621-5.435l.277-.042 4.726-.737v-.379c0-.779-.234-1.748-.702-2.127-.49-.4-1.065-.737-2.065-.737-2.768 0-3.343 2.022-3.364 3.054v.084l-3.492.042c0-1.496.703-3.434 2.129-4.655 1.129-.969 2.789-1.432 4.407-1.474h.298V9.8zM77.827 5.396h3.875v4.592H85.3v3.202h-3.598l-.021 8.615c0 .948.213 1.559.617 1.854.426.316 1.321.021 1.321.021l.341 3.349s-1.214.316-2.002.316c-1.022 0-1.873-.253-2.533-.758-1.065-.8-1.618-2.212-1.618-4.192l.021-9.184-3.236-3.202h3.257l-.021-4.613zm-22.866 6.846c1.107 1.137 2.448 3.16 2.427 6.298 0 3.139-1.341 5.14-2.449 6.277-1.533 1.538-3.598 2.444-5.685 2.444h-.255c-2.236 0-4.194-.8-5.855-2.338-1.661-1.559-2.491-3.707-2.491-6.404s.852-4.845 2.512-6.404c1.639-1.538 3.619-2.317 5.855-2.317 2.214-.063 4.365.822 5.94 2.443zm-8.964-7.078v3.792h-7.494l.021 18.094h-4.045v-.358L34.5 8.935h-7.643V5.143l19.14.021zm55.654.253h3.491v.084l-.043 21.528h-3.47v-.105l.022-21.507zm-5.812 13.67-3.875.653c-1.895.316-2.768 1.053-2.789 2.317 0 1.159.83 1.938 2.129 2.001h.191c2.47 0 4.237-1.917 4.343-4.697v-.274zm-46.84-5.877c-1.299 0-2.427.485-3.343 1.474-.894.969-1.363 2.254-1.363 3.834s.468 2.886 1.341 3.834c.916.99 2.044 1.474 3.343 1.496 1.32 0 2.47-.484 3.364-1.474.916-.99 1.384-2.275 1.384-3.834 0-1.58-.468-2.865-1.384-3.834-.873-.99-2.023-1.496-3.343-1.496zm18.247.106c-1.32 0-2.406.463-3.322 1.454-.915.948-1.362 2.17-1.384 3.665 0 1.496.447 2.844 1.363 3.834.937.948 2.023 1.432 3.3 1.432 1.32 0 2.427-.485 3.3-1.411.937-.969 1.363-2.317 1.384-3.813 0-1.496-.469-2.717-1.363-3.665-.83-.99-1.958-1.496-3.278-1.496z"/>
    </symbol>
    <symbol id="icon-upworklogo-freelogovectorsnet_-1" viewBox="0 0 74 32">
      <path d="M56.419 14.369v5.776h1.891v-4.101h.461l2.71 4.101h2.147l-.252-.367c-1.477-2.141-2.792-4.081-2.804-4.128-.012-.039.075-.103.26-.189.89-.422 1.65-1.305 1.997-2.315.106-.315.209-.856.209-1.108v-.173h-1.89v.106a5.145 5.145 0 0 1-.059.426c-.193 1.092-1.111 1.818-2.41 1.9l-.366.024V8.592h-1.891v5.777zM23.848 11.672c-1.146.248-2.068.907-2.694 1.928-.189.308-.39.781-.437 1.033-.016.083-.043.15-.059.15-.095 0-.693-1.621-.906-2.457l-.13-.501h-3.336v2.18c0 1.238-.016 2.322-.039 2.512-.118.978-.54 1.668-1.209 1.979-.236.11-.311.126-.705.142-.37.016-.488.004-.717-.067-.733-.221-1.241-.848-1.43-1.755-.067-.327-.075-.568-.075-2.677v-2.315h-1.93v2.322c0 1.439.016 2.441.043 2.63.154 1.12.756 2.204 1.575 2.835 1.532 1.187 3.856 1.033 5.179-.343.449-.465.736-.942.937-1.55.228-.69.232-.733.256-2.662.012-.986.035-1.767.047-1.735.016.032.118.343.228.69a13.694 13.694 0 0 0 1.461 3.115l.232.359-.508 2.906a195.094 195.094 0 0 0-.512 2.969c0 .047.154.055.965.055.532 0 .965-.008.965-.016 0-.012.134-.832.295-1.826s.315-1.924.339-2.074c.024-.146.055-.264.067-.264.016 0 .169.106.343.241a4.963 4.963 0 0 0 2.166.903c1.012.142 2.146-.122 3.017-.71a4.57 4.57 0 0 0 1.422-1.636c.587-1.175.614-2.709.075-3.904a4.464 4.464 0 0 0-2.3-2.212c-.516-.209-.941-.292-1.642-.311-.52-.016-.666-.008-.985.063zm1.765 1.794c.599.201 1.04.591 1.331 1.175.24.493.303.816.284 1.483-.016.453-.035.58-.13.863-.224.658-.638 1.143-1.221 1.423-.725.347-1.481.335-2.288-.039a4.674 4.674 0 0 1-.551-.308c-.236-.162-.717-.635-.878-.867l-.091-.13.087-.517c.374-2.251 1.296-3.292 2.836-3.202.201.012.449.059.622.118zM44.801 11.648c-1.607.292-2.926 1.506-3.371 3.103-.138.497-.181 1.632-.079 2.177.311 1.644 1.556 2.985 3.167 3.399a4.974 4.974 0 0 0 1.705.095c1.564-.229 2.938-1.36 3.446-2.851.299-.867.331-1.893.091-2.815-.296-1.136-1.17-2.188-2.257-2.713-.815-.394-1.855-.544-2.702-.394zm1.457 1.814c.799.213 1.449.887 1.67 1.735.091.339.122.931.067 1.281-.126.804-.508 1.423-1.123 1.822-.291.189-.638.296-1.13.355-.323.035-.426.032-.678-.024-.874-.197-1.528-.852-1.784-1.798-.11-.398-.098-1.222.016-1.636.331-1.159 1.284-1.877 2.41-1.814.185.012.433.047.551.079zM54.47 11.79c-.618.091-1.107.312-1.52.698l-.272.252v-.875h-1.891v8.241h1.891v-1.727c.004-3.005.09-3.596.634-4.168.378-.398.906-.576 1.757-.588l.485-.004v-1.873l-.422.004c-.236.004-.532.02-.662.039zM29.142 11.932c.043.15 2.111 8.174 2.111 8.194 0 .012.52.02 1.154.02h1.15l.784-2.89c.433-1.585.8-2.914.815-2.945.035-.071-.02-.252.882 3.083l.744 2.752h2.292l1.114-4.093c.614-2.248 1.126-4.113 1.134-4.14.016-.036-.201-.047-1.004-.047h-1.024l-.043.185a625.13 625.13 0 0 1-1.311 5.433c-.035.13-.047.146-.071.079-.016-.043-.355-1.345-.752-2.89l-.721-2.807H33.95l-.725 2.831c-.398 1.554-.737 2.855-.756 2.886-.024.043-.035.035-.051-.039a573.56 573.56 0 0 1-.693-2.874c-.37-1.526-.67-2.78-.67-2.788s-.437-.016-.969-.016c-.902 0-.965.004-.945.067z"/>
    </symbol>
  </defs>
</svg>
