<svg width="20" height="20" viewBox="0 0 20 20" fill="none" xmlns="http://www.w3.org/2000/svg">
<g clip-path="url(#clip0_225_2493)">
<path d="M17.5 15.8334C17.7124 15.8336 17.9167 15.9149 18.0712 16.0607C18.2256 16.2066 18.3185 16.4058 18.331 16.6179C18.3434 16.8299 18.2745 17.0387 18.1381 17.2016C18.0018 17.3644 17.8084 17.4691 17.5975 17.4942L17.5 17.5H2.50001C2.28761 17.4998 2.08332 17.4185 1.92887 17.2727C1.77443 17.1269 1.68148 16.9276 1.66904 16.7155C1.65659 16.5035 1.72557 16.2947 1.8619 16.1318C1.99823 15.969 2.1916 15.8643 2.40251 15.8392L2.50001 15.8334H17.5ZM15.8333 3.33337C16.2538 3.33324 16.6588 3.49205 16.9671 3.77795C17.2755 4.06386 17.4643 4.45574 17.4958 4.87504L17.5 5.00004V13.3334C17.5001 13.7539 17.3413 14.1588 17.0554 14.4672C16.7695 14.7755 16.3776 14.9643 15.9583 14.9959L15.8333 15H4.16668C3.7462 15.0002 3.34121 14.8414 3.03289 14.5555C2.72457 14.2696 2.53572 13.8777 2.50418 13.4584L2.50001 13.3334V5.00004C2.49988 4.57956 2.65868 4.17457 2.94459 3.86625C3.2305 3.55793 3.62238 3.36908 4.04168 3.33754L4.16668 3.33337H15.8333Z" fill="white"/>
</g>
<defs>
<clipPath id="clip0_225_2493">
<rect width="20" height="20" fill="white"/>
</clipPath>
</defs>
</svg>
